<?xml version="1.0" standalone="no"?>
<!DOCTYPE svg PUBLIC "-//W3C//DTD SVG 20010904//EN"
 "http://www.w3.org/TR/2001/REC-SVG-20010904/DTD/svg10.dtd">
<svg version="1.0" xmlns="http://www.w3.org/2000/svg"
 width="300.000000pt" height="175.000000pt" viewBox="0 0 300.000000 175.000000"
 preserveAspectRatio="xMidYMid meet">
<metadata>
Created by potrace 1.10, written by Peter Selinger 2001-2011
</metadata>
<g transform="translate(0.000000,175.000000) scale(0.100000,-0.100000)"
fill="#000000" stroke="none">
<path d="M843 1739 c33 -19 8 -84 -35 -91 -24 -3 -32 -17 -19 -36 6 -10 16 -6
41 19 51 51 61 119 17 119 -20 -1 -20 -2 -4 -11z"/>
<path d="M745 1525 c-16 -24 -38 -47 -50 -51 -19 -6 -18 -7 5 -11 14 -3 30 -8
35 -13 13 -9 85 -1 85 10 0 5 8 11 18 13 9 2 1 2 -18 0 -19 -2 -43 -6 -53 -9
-29 -9 -31 24 -3 66 14 22 23 40 19 40 -5 0 -21 -20 -38 -45z"/>
<path d="M2952 1529 c-12 -18 -20 -21 -55 -16 -77 10 -190 -24 -202 -62 -8
-26 -66 -45 -108 -35 -17 4 -52 6 -76 5 -28 -1 -55 6 -76 19 -35 22 -99 25
-123 7 -17 -13 -128 7 -194 34 -58 24 -104 29 -141 16 -20 -7 -25 -13 -18 -20
8 -8 14 -8 23 1 17 17 49 15 77 -5 16 -10 21 -12 16 -3 -6 10 -4 12 11 6 10
-5 27 -11 37 -13 24 -7 22 -27 -3 -20 -11 3 -20 1 -20 -4 0 -5 9 -9 19 -9 11
0 23 -4 26 -10 3 -5 11 -10 17 -10 7 0 6 6 -2 15 -11 13 -8 15 18 15 42 0 85
-17 76 -31 -3 -6 5 -3 20 6 14 10 26 13 26 9 0 -5 4 -3 9 5 13 21 70 20 113
-1 20 -10 64 -20 98 -22 33 -3 75 -12 92 -21 30 -15 55 -12 30 4 -8 5 1 11 25
19 34 10 36 10 19 -3 -19 -15 -19 -15 2 -15 21 0 28 22 23 67 -2 18 67 36 144
39 86 2 115 11 115 35 0 24 -2 24 -18 -2z"/>
<path d="M885 1470 c3 -5 12 -10 20 -10 7 0 16 -6 18 -12 4 -10 6 -10 6 0 1
18 35 15 62 -6 34 -25 79 -44 79 -32 0 6 7 10 16 10 14 0 14 -3 4 -15 -10 -13
-9 -15 9 -15 12 0 19 5 16 10 -8 13 8 13 22 -1 12 -12 113 -18 113 -7 0 10
133 -2 146 -13 37 -31 148 -44 193 -23 25 12 39 14 55 5 22 -11 48 -14 81 -12
11 1 -6 11 -38 21 -55 18 -61 18 -120 3 -60 -16 -64 -16 -127 6 -91 31 -151
41 -207 32 -31 -4 -67 -2 -102 7 -29 7 -56 11 -59 8 -3 -3 -29 7 -59 24 -51
29 -143 43 -128 20z"/>
<path d="M1921 1433 c0 -11 3 -13 6 -5 2 6 9 12 14 12 6 0 5 -9 -2 -22 l-11
-21 -19 24 c-11 14 -19 18 -19 10 0 -7 -6 -11 -14 -8 -8 3 -17 -1 -20 -10 -4
-9 -9 -14 -12 -11 -9 10 -62 -52 -59 -69 1 -10 -3 -25 -9 -33 -10 -13 -9 -13
7 -1 9 7 17 20 17 28 0 8 4 12 10 8 11 -7 3 -33 -18 -57 -14 -17 -12 -18 25
-18 36 0 41 3 41 23 0 12 3 33 6 47 5 16 -1 10 -15 -15 -13 -24 -24 -34 -27
-27 -2 8 1 19 7 25 14 14 14 40 0 31 -7 -4 -10 -1 -7 7 3 8 11 13 17 12 6 -2
11 1 11 6 0 17 30 40 44 35 8 -3 13 -12 12 -21 0 -8 10 -19 23 -24 l25 -10
-20 22 c-19 22 -19 22 3 17 17 -5 23 0 28 19 7 30 0 43 -26 43 -12 0 -19 -7
-18 -17z"/>
<path d="M885 1403 c-8 -34 24 -59 41 -31 5 8 2 9 -11 4 -15 -5 -16 -4 -5 8
10 13 9 18 -3 30 -13 14 -16 12 -22 -11z"/>
<path d="M2323 1417 c-19 -10 -20 -14 -8 -30 8 -12 15 -14 20 -8 9 16 25 13
25 -4 0 -8 -4 -15 -10 -15 -17 0 -11 -18 8 -23 16 -4 16 -4 -1 -12 -21 -9 -68
12 -66 29 4 32 -16 44 -37 23 -13 -13 -23 -7 -17 9 5 14 3 14 -16 3 -12 -8
-19 -19 -17 -25 2 -6 -4 -18 -14 -27 -18 -15 -21 -14 -39 12 -11 16 -18 31
-15 33 3 3 -2 8 -11 12 -13 5 -15 1 -10 -15 6 -16 3 -20 -11 -17 -9 1 -19 9
-22 17 -3 9 0 11 9 7 8 -4 3 2 -11 13 -28 23 -55 27 -66 9 -4 -7 -3 -8 5 -4
17 11 51 -3 45 -19 -3 -7 8 -28 25 -46 24 -25 28 -35 19 -41 -15 -10 199 0
241 12 21 5 25 12 23 33 -1 15 2 27 8 27 5 0 10 -4 10 -9 0 -5 12 -12 28 -14
l27 -4 -27 -2 c-16 0 -28 -5 -28 -11 0 -16 57 -12 74 6 20 19 21 50 3 57 -16
6 -39 -6 -37 -19 1 -5 -3 -10 -9 -12 -6 -2 -11 5 -11 16 0 16 -5 19 -22 14
-15 -4 -19 -2 -13 8 4 7 2 16 -6 21 -18 11 -19 11 -46 -4z m-27 -105 c-3 -2
-13 -1 -23 3 -10 4 -31 7 -48 5 l-30 -2 25 20 c39 30 53 31 68 4 7 -14 10 -27
8 -30z"/>
<path d="M1982 1387 c-9 -10 -3 -14 28 -15 24 -2 40 2 40 8 0 6 -8 10 -17 8
-10 -1 -23 1 -29 5 -7 4 -17 1 -22 -6z"/>
<path d="M1039 1376 c8 -10 9 -16 1 -21 -5 -3 -10 -11 -10 -16 0 -6 5 -7 10
-4 6 3 10 0 11 -7 0 -7 4 -4 8 7 9 22 -3 55 -21 55 -7 0 -7 -4 1 -14z"/>
<path d="M1146 1351 c14 -24 22 -28 57 -27 23 1 42 7 45 15 3 8 17 0 43 -25
23 -22 42 -34 47 -29 4 6 6 9 4 8 -4 -1 -42 35 -42 40 0 1 25 2 56 1 40 -1 53
1 45 9 -14 14 -82 18 -98 5 -7 -6 -19 -6 -31 1 -13 7 -22 7 -31 -2 -10 -9 -11
-8 -6 6 4 9 3 17 -3 17 -6 0 -13 -10 -15 -22 l-4 -23 -8 23 c-5 15 -10 19 -15
13 -7 -13 -40 -4 -40 10 0 5 -5 9 -11 9 -6 0 -3 -13 7 -29z"/>
<path d="M2003 1317 c1 -37 4 -43 19 -39 10 2 15 8 12 13 -3 5 -7 19 -9 31 -9
43 -23 40 -22 -5z"/>
<path d="M2043 1340 c3 -11 0 -20 -6 -20 -7 0 -4 -7 5 -14 10 -7 15 -16 11
-19 -3 -4 3 -7 15 -7 13 0 22 6 22 15 0 8 -6 14 -12 13 -8 -2 -12 6 -11 19 1
12 -5 24 -13 27 -13 5 -15 2 -11 -14z"/>
<path d="M1747 1336 c-9 -7 -17 -18 -17 -24 0 -7 -7 -9 -17 -5 -11 4 -24 -3
-41 -23 -13 -16 -21 -23 -18 -16 9 15 1 15 -23 0 -15 -9 -23 -9 -34 0 -8 7
-35 23 -60 37 -41 21 -45 22 -35 5 7 -10 14 -17 18 -16 3 2 14 -5 24 -15 19
-19 19 -19 -9 -17 -19 2 -34 12 -44 30 -9 15 -19 28 -23 28 -13 0 -9 -17 7
-30 25 -21 17 -31 -12 -17 -16 8 -39 18 -53 22 l-25 7 28 -27 c29 -28 30 -48
1 -25 -8 8 -25 15 -37 15 -20 2 -19 1 3 -17 21 -17 35 -19 134 -13 61 3 125 9
141 12 17 4 41 7 55 7 18 1 30 12 47 43 23 45 19 60 -10 39z"/>
<path d="M1895 1330 c4 -12 0 -26 -9 -36 -9 -8 -16 -20 -16 -25 0 -11 14 -12
24 -2 4 4 27 6 51 4 36 -2 45 1 45 14 0 14 -7 16 -42 10 -39 -7 -41 -6 -25 10
21 20 22 36 2 29 -8 -4 -15 -1 -15 5 0 6 -5 11 -11 11 -6 0 -8 -9 -4 -20z"/>
<path d="M1249 1303 c-1 -16 0 -36 1 -47 1 -11 -3 -15 -9 -12 -7 4 -8 1 -5 -8
5 -13 23 -16 81 -16 50 0 72 3 68 11 -4 6 -13 8 -21 5 -8 -3 -13 0 -11 6 1 6
-4 13 -10 15 -7 3 -13 -2 -13 -10 0 -23 -43 -17 -63 9 -16 22 -16 24 -1 24 11
0 14 5 10 16 -3 9 -6 20 -6 25 0 23 -20 6 -21 -18z"/>
<path d="M1092 1283 c-5 -10 -7 -24 -4 -32 3 -8 0 -11 -7 -7 -7 5 -11 -2 -11
-18 0 -36 17 -32 25 5 7 29 8 30 23 15 15 -14 14 -17 -3 -31 -20 -14 -20 -14
1 -15 11 0 24 3 27 6 8 8 -11 45 -31 60 -8 6 -12 16 -8 22 4 7 5 12 2 12 -3 0
-9 -8 -14 -17z"/>
<path d="M1010 1263 c0 -6 5 -15 10 -18 6 -4 8 -15 5 -26 -5 -15 -1 -19 14
-19 27 0 26 11 -4 46 -14 16 -25 24 -25 17z"/>
<path d="M2650 1263 c-72 -4 -377 -23 -480 -29 -52 -3 -124 -9 -160 -14 -36
-5 -100 -10 -142 -10 -45 0 -78 -4 -78 -10 0 -5 -24 -10 -54 -10 -30 0 -58 -5
-62 -11 -4 -7 0 -9 12 -6 11 3 60 9 109 12 50 4 106 8 125 10 257 27 703 55
714 45 4 -4 22 -4 38 1 17 4 35 6 39 3 5 -3 9 2 9 10 0 9 -6 15 -12 14 -7 -1
-33 -3 -58 -5z"/>
<path d="M1150 1250 c0 -6 7 -10 15 -10 18 0 20 -16 3 -23 -7 -3 4 -6 25 -6
20 -1 37 4 37 10 0 5 -4 8 -9 4 -5 -3 -15 1 -23 8 -18 18 -48 28 -48 17z"/>
<path d="M2770 1230 c14 -4 37 -8 53 -9 35 -1 35 -15 -1 -18 -15 -2 -36 -5
-47 -7 -11 -3 -29 -5 -40 -6 -14 -2 -11 -4 10 -9 17 -4 50 -1 75 6 25 8 73 13
108 12 66 -2 78 2 69 24 -4 10 -35 13 -128 14 -78 1 -115 -2 -99 -7z"/>
<path d="M2395 1199 c-4 -5 -3 -9 2 -10 47 -6 63 -4 60 5 -5 14 -55 18 -62 5z"/>
<path d="M2573 1199 c-14 -4 -12 -7 8 -12 13 -4 39 -7 58 -7 28 0 32 2 21 15
-11 14 -53 16 -87 4z"/>
<path d="M2209 1192 c-6 -18 -36 -22 -254 -28 -110 -3 -207 -10 -215 -15 -14
-8 27 -14 85 -12 11 0 106 4 210 7 225 7 254 10 309 36 l41 19 -35 0 c-19 0
-56 -4 -82 -8 -32 -5 -49 -4 -51 3 -2 7 -5 6 -8 -2z"/>
<path d="M1530 1170 c-25 -5 -75 -11 -112 -15 -53 -5 -66 -10 -61 -21 4 -11 0
-13 -18 -7 -37 12 -314 1 -327 -12 -4 -4 118 -6 270 -4 153 2 278 7 278 12 0
4 -12 7 -26 7 -48 0 0 30 63 39 48 7 51 9 18 9 -22 0 -60 -4 -85 -8z"/>
<path d="M2374 1149 c-2 -4 -23 -10 -46 -14 -24 -4 -56 -10 -73 -13 -16 -3
-45 -6 -62 -6 -24 0 -30 -3 -23 -12 7 -7 27 -10 55 -6 30 3 45 1 45 -7 0 -6 5
-11 11 -11 5 0 8 4 4 9 -8 14 37 19 203 25 135 5 172 13 172 37 0 5 -8 9 -17
9 -14 0 -15 -2 -5 -9 10 -6 8 -10 -10 -14 -12 -4 -24 -2 -26 3 -2 6 -13 10
-23 10 -11 0 -17 -4 -14 -10 3 -5 -1 -10 -10 -10 -9 0 -13 5 -10 10 4 6 3 10
-2 9 -4 -1 -11 0 -15 1 -18 6 -150 5 -154 -1z"/>
<path d="M2737 1133 c-9 -2 -15 -9 -12 -14 4 -5 -11 -10 -32 -11 -25 -1 -17
-3 27 -8 36 -3 74 -3 85 1 14 6 8 8 -23 8 -29 1 -41 5 -36 12 4 6 19 9 38 5
22 -4 27 -3 16 4 -16 10 -33 11 -63 3z"/>
<path d="M2040 1119 c-30 -4 -114 -7 -186 -8 -112 -1 -133 -3 -138 -17 -5 -14
-4 -15 8 -4 12 9 48 10 143 5 88 -5 147 -3 186 5 43 9 61 9 72 0 11 -9 12 -7
8 9 -3 11 -12 19 -21 18 -10 -1 -42 -5 -72 -8z"/>
<path d="M469 1096 c-3 -3 -42 -6 -87 -7 -45 -1 -85 -6 -88 -10 -6 -10 -10
-10 116 -14 52 -2 139 -6 193 -10 71 -4 97 -3 97 6 0 8 4 8 13 1 14 -12 45
-10 55 4 4 5 61 9 127 8 187 -2 207 -3 200 -14 -8 -13 15 -13 35 0 32 20 -40
28 -247 27 -116 -1 -209 -5 -207 -9 9 -14 -28 -22 -45 -11 -10 6 -37 9 -62 8
-71 -5 -93 9 -24 16 l60 6 -66 1 c-36 1 -68 0 -70 -2z"/>
<path d="M202 1083 c-36 -3 -52 -8 -49 -16 4 -14 5 -14 75 -3 28 4 49 12 46
17 -3 5 -8 8 -12 7 -4 -1 -31 -3 -60 -5z"/>
<path d="M2361 1073 c-16 -17 -14 -28 3 -14 10 8 16 9 21 1 3 -5 12 -10 18
-10 8 0 7 4 -2 9 -11 7 -6 12 20 19 l34 10 -41 -1 c-23 -1 -46 -7 -53 -14z"/>
<path d="M1270 1068 c0 -4 23 -8 52 -8 28 0 49 2 47 5 -9 8 -99 11 -99 3z"/>
<path d="M41 1053 c-9 -15 -12 -15 -19 -5 -8 11 -10 11 -15 -2 -5 -13 2 -16
43 -16 28 0 50 5 50 10 0 6 7 10 15 10 8 0 15 -5 15 -12 0 -9 3 -9 12 0 10 10
10 15 -2 22 -26 17 -88 12 -99 -7z"/>
<path d="M1710 1063 c-14 -1 -60 -5 -103 -8 -43 -4 -76 -9 -74 -12 6 -5 250
-12 402 -12 94 0 99 0 80 -16 -20 -17 -20 -17 0 -10 49 16 125 25 209 25 85 0
92 2 93 20 1 11 -4 20 -12 20 -8 0 -12 -6 -9 -14 4 -11 -1 -13 -28 -9 -39 8
-53 7 -175 0 -51 -3 -93 -3 -93 1 0 4 -44 5 -98 4 -55 -2 -114 0 -133 5 -19 5
-45 7 -59 6z"/>
<path d="M2927 1064 c-1 -1 -37 -5 -79 -8 -43 -3 -96 -10 -117 -16 -26 -7 -48
-7 -65 -1 -14 6 -28 7 -30 2 -3 -4 -74 -7 -158 -6 -114 1 -144 -1 -118 -8 39
-11 543 -16 605 -6 43 7 30 12 -22 9 -18 -1 -33 2 -33 7 0 5 17 10 37 11 21 2
42 7 48 13 7 7 -3 9 -28 7 -21 -1 -39 -3 -40 -4z"/>
<path d="M410 1050 c0 -4 -29 -7 -65 -5 -35 1 -62 -2 -59 -6 3 -5 1 -9 -5 -9
-5 0 -13 5 -16 10 -3 6 -14 10 -23 9 -14 0 -14 -2 2 -8 28 -11 4 -23 -31 -15
-22 4 -25 3 -13 -5 10 -8 54 -9 140 -4 69 4 140 7 158 7 17 0 32 3 32 8 0 4
-7 8 -15 8 -8 0 -18 1 -22 2 -43 10 -83 14 -83 8z"/>
<path d="M570 1032 c0 -4 21 -9 46 -11 25 -1 43 2 41 6 -7 12 -87 16 -87 5z"/>
<path d="M859 1021 c61 -6 86 -13 93 -25 8 -14 22 -15 96 -10 48 3 151 7 230
9 124 3 143 1 152 -13 5 -10 10 -12 10 -6 0 8 15 10 44 7 38 -5 44 -3 49 16 6
23 -3 27 -20 10 -7 -7 -19 -8 -30 -4 -10 5 -106 9 -213 10 -107 1 -262 4 -345
8 -103 4 -124 3 -66 -2z"/>
<path d="M1610 999 c-18 -5 -7 -8 40 -10 127 -5 220 -4 220 4 0 8 2 8 -130 11
-58 1 -116 -1 -130 -5z"/>
<path d="M124 988 c-3 -4 -32 -8 -65 -8 -34 0 -59 -4 -59 -10 0 -11 229 -13
283 -3 41 8 32 20 -15 21 -24 0 -65 2 -91 5 -26 2 -50 0 -53 -5z"/>
<path d="M2610 990 c-25 -8 -25 -8 5 -9 31 -2 75 -31 75 -50 0 -6 4 -11 9 -11
5 0 9 14 9 30 -1 24 -5 30 -24 30 -13 0 -26 5 -29 10 -7 11 -10 11 -45 0z"/>
<path d="M2010 979 c0 -12 77 -18 255 -19 99 0 194 4 210 9 21 6 -18 10 -135
11 -91 1 -202 3 -247 4 -46 0 -83 -2 -83 -5z"/>
<path d="M1544 956 c-2 -20 1 -22 11 -13 7 7 12 14 10 17 -2 3 10 6 26 7 16 1
29 -2 29 -8 0 -6 -5 -7 -10 -4 -6 4 -10 3 -9 -2 4 -23 -3 -34 -18 -31 -10 1
-24 -1 -32 -6 -8 -5 -16 -4 -21 4 -5 9 -9 9 -14 1 -4 -6 -12 -8 -18 -5 -5 3
-54 6 -109 6 -68 0 -99 4 -99 12 0 8 -2 8 -8 0 -4 -7 -42 -12 -97 -13 -49 -1
-106 -2 -125 -2 -78 -2 -120 1 -118 10 2 5 -1 9 -7 9 -5 0 -9 -4 -8 -8 4 -12
-56 -9 -64 3 -4 6 0 8 10 4 11 -4 17 -1 17 8 0 7 10 16 23 18 19 4 18 4 -5 6
-16 0 -28 -4 -28 -10 0 -6 -7 -8 -16 -5 -8 3 -12 2 -9 -3 3 -5 1 -12 -5 -16
-5 -3 -10 -2 -10 3 0 5 -11 10 -25 10 -13 0 -22 -4 -20 -9 3 -4 -10 -5 -30 -2
-40 6 -46 -8 -11 -26 29 -16 1150 -9 1206 7 35 10 22 17 -25 13 -40 -2 -130
-10 -130 -11 0 -1 -12 -3 -27 -5 -17 -2 -28 1 -28 8 0 7 -4 6 -11 -3 -8 -11
-12 -12 -16 -2 -2 6 -10 9 -16 5 -14 -9 -79 -4 -90 6 -4 5 6 14 23 21 48 20
43 25 -29 28 -64 2 -66 2 -67 -22z"/>
<path d="M350 890 c0 -6 5 -10 10 -10 6 0 10 -6 10 -14 0 -22 41 -28 47 -7 3
14 14 17 54 15 27 -1 49 2 49 8 0 5 -4 7 -8 4 -4 -3 -24 -1 -43 3 -19 4 -43 5
-54 1 -11 -4 -30 -4 -42 1 -14 5 -23 5 -23 -1z"/>
<path d="M81 881 c-45 -8 -54 -31 -12 -31 17 0 31 5 31 10 0 6 12 10 26 10 14
0 23 4 19 10 -7 11 -11 11 -64 1z"/>
<path d="M220 872 c0 -10 -18 -25 -41 -36 -38 -17 -87 -18 -162 -3 -6 1 -13
-8 -15 -21 l-3 -23 173 1 c95 0 216 0 268 0 52 0 132 3 178 6 75 6 85 5 105
-14 17 -16 34 -21 75 -20 28 1 52 6 52 11 0 6 3 7 7 4 3 -4 11 -3 17 2 14 12
103 17 133 7 12 -4 24 -2 27 3 8 12 -75 25 -109 17 -14 -4 -25 -2 -25 4 0 5
-12 10 -27 9 -25 0 -26 -1 -8 -10 14 -6 9 -7 -20 -3 -22 3 -61 7 -86 7 -27 1
-45 6 -43 12 5 12 -65 14 -83 2 -7 -4 -36 -7 -65 -6 -29 0 -84 1 -123 0 -96
-1 -126 4 -137 23 -5 9 -17 16 -28 16 -10 0 -20 5 -22 12 -6 18 -38 18 -38 0z
m50 -25 c38 -6 37 -33 -1 -29 -4 1 -23 2 -42 4 l-36 2 22 21 c12 11 24 17 27
13 3 -4 17 -9 30 -11z"/>
<path d="M2853 873 c-13 -2 -23 -8 -23 -13 0 -14 33 -21 42 -8 4 7 8 9 8 4 0
-5 7 -2 16 5 15 12 16 11 10 -8 -5 -17 -2 -25 16 -34 19 -9 21 -9 11 2 -19 20
-16 26 20 34 l32 8 -30 7 c-33 8 -69 9 -102 3z"/>
<path d="M2757 833 c-9 -9 -9 -63 1 -64 4 -1 16 -3 27 -4 11 -2 31 -7 45 -12
28 -11 170 -5 170 6 0 16 -13 20 -31 11 -13 -7 -22 -6 -33 6 -9 8 -16 11 -16
6 0 -6 -7 -13 -16 -16 -12 -5 -14 -1 -9 17 4 12 3 17 -2 10 -11 -16 -63 -28
-63 -15 0 6 4 13 9 16 12 8 7 43 -5 36 -5 -3 -8 -9 -6 -13 2 -8 -22 -37 -32
-37 -3 0 -6 12 -7 28 0 26 -1 26 -9 5 -12 -31 -24 -29 -18 2 6 27 5 29 -5 18z"/>
<path d="M1090 810 c-30 -4 -35 -8 -32 -29 3 -21 1 -23 -32 -19 -38 4 -50 -6
-17 -15 32 -8 70 3 64 19 -5 13 8 19 30 15 5 -1 6 3 2 8 -3 6 15 11 42 13 45
3 46 3 13 8 -19 3 -51 3 -70 0z"/>
<path d="M1253 813 c-13 -2 -23 -9 -23 -14 0 -5 12 -6 28 -2 31 8 36 8 112 0
34 -3 47 -2 34 3 -27 11 -123 19 -151 13z"/>
<path d="M1515 774 c48 -10 101 -29 107 -39 5 -6 8 -6 8 2 0 17 -65 43 -104
42 -19 -1 -23 -3 -11 -5z"/>
<path d="M1384 749 c0 -18 1 -19 12 -4 12 17 54 13 54 -5 0 -11 39 -20 46 -9
3 5 -3 9 -13 9 -10 0 -27 7 -37 15 -30 22 -62 19 -62 -6z"/>
<path d="M1094 745 c-17 -13 -17 -15 -1 -16 34 -3 37 -4 37 -14 0 -13 -20 -14
-42 -3 -12 6 -18 5 -18 -2 0 -6 -5 -8 -11 -4 -7 4 -24 7 -40 6 -22 0 -27 3
-23 16 5 14 2 13 -10 -2 -15 -18 -16 -18 -16 -2 0 9 -5 14 -10 11 -6 -4 -8
-11 -5 -16 8 -12 -127 -5 -146 7 -8 5 -33 9 -56 10 -45 0 -56 -13 -28 -36 19
-16 172 -21 204 -6 19 8 25 8 29 -2 2 -7 13 -10 28 -6 14 4 31 1 39 -6 12 -10
18 -10 29 -1 16 14 274 13 282 -1 3 -4 11 -8 17 -8 7 0 6 4 -3 10 -12 7 -8 10
15 10 23 0 27 -3 15 -10 -11 -8 -7 -9 15 -4 17 4 32 8 34 10 2 2 11 -1 21 -6
18 -10 138 11 167 30 16 9 15 10 -5 5 -13 -4 -28 -3 -35 2 -7 4 -19 8 -27 7
-8 -1 -23 -2 -33 -3 -10 0 -16 -4 -14 -8 3 -5 -76 -9 -174 -10 -98 -1 -179 2
-179 7 0 4 8 7 18 5 9 -1 22 2 29 7 7 5 18 6 25 2 7 -4 10 -4 6 1 -4 4 -4 13
1 19 6 8 -3 11 -30 11 -21 1 -34 -2 -28 -6 26 -16 -9 -31 -41 -19 -3 1 -9 2
-14 1 -5 -1 -6 5 -3 14 8 19 6 19 -19 0z"/>
<path d="M139 665 c-3 -2 -20 -5 -38 -7 -27 -2 -30 -4 -16 -14 9 -7 31 -12 49
-12 19 0 43 -5 54 -11 23 -12 112 -11 112 2 0 4 5 5 10 2 6 -3 10 3 10 14 0
17 -4 18 -27 12 -16 -5 -43 -8 -61 -7 -17 1 -32 -3 -32 -9 0 -5 -5 -2 -11 8
-6 9 -15 14 -21 11 -6 -4 -13 -1 -17 5 -4 6 -10 9 -12 6z"/>
<path d="M392 656 c-4 -7 -18 -12 -32 -11 -16 0 -26 -6 -28 -18 -3 -13 2 -18
15 -16 25 3 75 -19 68 -30 -3 -5 -1 -12 5 -16 5 -3 10 -1 10 5 0 6 8 10 18 9
36 -3 35 4 -2 15 -28 9 -40 19 -43 34 -1 12 0 21 5 21 17 -3 85 1 81 5 -11 11
-90 12 -97 2z"/>
<path d="M500 651 c0 -5 9 -11 20 -14 11 -3 20 -1 20 4 0 5 4 9 9 9 10 0 27
-39 23 -53 -1 -5 2 -6 7 -3 5 3 7 15 4 26 -4 14 0 20 11 20 10 0 15 4 12 8 -6
11 -106 14 -106 3z"/>
<path d="M690 635 c0 -8 -7 -15 -15 -15 -8 0 -15 -4 -15 -10 0 -16 30 -12 36
5 4 8 12 15 20 15 8 0 14 5 14 10 0 6 -9 10 -20 10 -11 0 -20 -7 -20 -15z"/>
<path d="M0 614 c0 -14 2 -15 17 -3 11 10 14 10 9 2 -5 -9 0 -13 13 -13 12 0
21 5 21 11 0 5 -4 8 -9 4 -5 -3 -12 -1 -16 5 -10 16 -35 12 -35 -6z"/>
<path d="M750 606 c14 -18 13 -19 -7 -14 -12 3 -24 1 -27 -6 -3 -7 -5 -7 -5 2
-1 8 -6 10 -13 5 -7 -4 -41 -8 -76 -9 -35 -2 -69 -7 -75 -12 -17 -14 -209 -23
-200 -9 3 6 1 7 -5 3 -6 -4 -21 -2 -32 4 -15 8 -20 8 -18 -1 2 -6 -3 -14 -10
-16 -7 -3 -10 1 -6 10 3 8 1 18 -5 21 -5 4 -12 -2 -16 -13 -3 -11 -14 -19 -25
-18 -15 1 -17 5 -8 20 5 11 6 17 1 14 -5 -3 -20 0 -34 6 -30 16 -79 20 -79 8
0 -6 9 -13 20 -16 11 -3 20 -11 20 -17 0 -7 4 -7 13 0 14 12 31 4 35 -15 2
-15 -30 -17 -44 -3 -5 5 -30 12 -54 14 -25 3 -45 5 -45 6 0 1 -12 3 -27 5 -30
4 -36 -9 -17 -35 8 -11 12 -12 16 -2 2 6 9 9 14 6 32 -19 255 -21 285 -1 6 3
14 4 18 0 9 -9 247 -11 273 -2 14 5 23 4 27 -4 2 -7 5 -4 5 7 1 13 6 16 19 11
9 -4 22 -7 27 -6 6 1 30 4 55 7 25 4 51 11 59 18 12 8 13 8 7 -2 -6 -10 2 -12
36 -11 24 2 49 -1 55 -4 6 -4 13 -2 15 5 3 7 11 9 24 3 10 -4 22 -8 26 -7 4 1
19 -3 33 -8 17 -6 25 -6 25 1 0 6 4 8 9 5 5 -4 20 -2 33 3 16 6 -11 11 -99 16
-68 4 -123 11 -123 14 0 4 -18 7 -41 8 -22 1 -48 8 -57 15 -16 12 -16 11 -2
-6z"/>
<path d="M1715 604 c-45 -14 -124 -18 -142 -6 -16 10 -161 -9 -166 -22 -3 -7
12 -12 37 -12 116 -5 116 -5 116 -24 0 -25 -15 -33 -30 -15 -6 7 -18 11 -25 8
-12 -4 -12 -7 0 -20 8 -8 19 -12 24 -9 5 3 11 -2 13 -12 6 -23 60 -52 65 -35
3 9 9 8 21 -4 16 -15 17 -15 20 0 2 10 7 15 12 12 11 -7 63 5 55 13 -9 10 -35
11 -35 2 0 -5 -13 -5 -30 0 -16 5 -30 6 -30 3 0 -3 -7 0 -15 7 -13 11 -14 10
-9 -5 6 -15 3 -16 -17 -10 -13 4 -26 9 -28 11 -7 6 11 24 25 24 8 0 14 7 14
16 0 8 -4 12 -10 9 -5 -3 -10 4 -10 16 0 17 4 20 22 16 12 -4 28 -1 35 4 19
17 36 6 39 -25 2 -22 -1 -26 -13 -22 -9 4 -25 3 -37 -1 -18 -6 -16 -8 14 -13
39 -6 74 15 50 30 -17 10 1 43 26 45 11 2 26 5 34 9 11 4 19 -1 26 -16 6 -13
9 -17 7 -10 -4 17 13 15 33 -5 16 -16 16 -16 10 5 -7 20 -5 21 20 12 19 -7 30
-7 40 1 11 9 14 8 14 -1 0 -7 7 -10 15 -6 13 5 20 -5 16 -26 0 -5 4 -8 10 -8
6 0 9 7 5 15 -3 8 0 16 7 17 7 0 21 2 32 3 11 1 25 4 30 5 6 1 20 1 33 0 12
-1 22 4 22 10 0 9 -15 10 -57 5 -66 -9 -71 -9 -133 0 -25 3 -57 7 -72 9 -14 2
-30 6 -35 8 -4 3 -26 -1 -48 -8z"/>
<path d="M2175 592 c-3 -3 -27 -4 -55 -3 -27 1 -50 -3 -50 -8 0 -5 37 -9 83
-10 45 -1 87 -2 92 -2 6 0 19 1 30 3 11 2 20 -3 20 -9 0 -7 3 -13 8 -13 4 0
22 -7 40 -16 30 -16 31 -16 18 0 -17 21 -7 33 14 16 12 -10 15 -10 15 4 0 11
-9 16 -26 16 -14 0 -34 5 -45 11 -21 11 -135 19 -144 11z"/>
<path d="M1361 573 c-6 -11 -11 -13 -11 -5 0 9 -5 10 -17 4 -10 -5 -24 -7 -30
-5 -7 3 -13 0 -13 -7 0 -6 5 -8 10 -5 6 3 10 3 10 -2 0 -14 69 -9 75 5 3 7 0
10 -5 7 -6 -3 -10 -2 -10 4 0 5 8 12 18 14 15 4 15 5 0 6 -9 0 -22 -7 -27 -16z"/>
<path d="M1200 571 c0 -6 3 -12 8 -12 43 -7 63 -6 68 2 3 5 -7 8 -23 7 -16 -1
-34 1 -41 6 -7 4 -12 2 -12 -3z"/>
<path d="M2410 554 c0 -14 2 -16 9 -6 7 11 9 11 14 -1 3 -8 0 -20 -6 -26 -8
-8 -8 -11 0 -11 6 0 14 8 17 17 5 12 10 13 18 5 7 -7 19 -7 33 -2 13 5 25 7
27 4 10 -10 88 -15 88 -6 0 9 -67 23 -135 27 -16 1 -38 5 -47 9 -14 6 -18 4
-18 -10z"/>
<path d="M1965 524 c8 -20 15 -38 15 -40 0 -2 7 -4 15 -4 8 0 15 5 15 10 0 6
-6 10 -14 10 -8 0 -17 14 -21 30 -4 17 -11 30 -16 30 -5 0 -2 -16 6 -36z"/>
<path d="M2040 541 c0 -6 10 -11 21 -11 18 0 19 -2 9 -15 -7 -8 -19 -15 -28
-15 -8 0 -12 -3 -9 -6 9 -9 59 -14 71 -7 14 9 66 9 66 1 0 -5 11 -8 24 -8 13
0 26 -5 28 -12 3 -8 28 -12 71 -12 63 0 81 -6 57 -21 -15 -10 -12 -23 8 -28
23 -5 -34 -30 -68 -28 -89 3 -151 8 -157 14 -11 12 -25 8 -20 -5 5 -15 -82
-12 -97 3 -14 13 -28 11 -20 -2 5 -8 -1 -10 -20 -7 -14 3 -29 1 -32 -3 -4 -8
17 -13 38 -10 4 0 5 -6 1 -15 -5 -12 -1 -15 13 -11 52 15 85 17 103 8 16 -9
21 -7 26 10 4 12 10 18 14 13 3 -5 32 -10 65 -11 32 -2 64 -7 71 -13 7 -6 15
-6 22 1 16 16 322 13 339 -3 4 -4 2 -14 -5 -22 -9 -11 -8 -15 4 -20 11 -4 14
-2 9 6 -5 7 0 9 14 6 13 -4 29 2 41 14 26 23 26 24 2 31 -14 3 -18 1 -14 -9 3
-8 -1 -14 -10 -14 -8 0 -17 5 -19 10 -2 6 -18 13 -37 15 -33 4 -56 15 -33 15
7 0 12 4 12 8 0 5 -22 8 -50 7 -27 -1 -50 2 -50 7 0 4 9 8 20 8 11 0 20 5 20
11 0 6 -9 9 -20 6 -11 -3 -20 -1 -20 4 0 13 -28 11 -32 -1 -4 -13 -36 -16 -61
-5 -13 6 -16 4 -11 -10 6 -15 4 -15 -14 -4 -29 18 -10 39 35 39 27 0 34 4 31
17 -2 11 -14 16 -36 17 -17 1 -32 -2 -32 -6 0 -5 5 -8 12 -8 6 0 9 -2 6 -5 -8
-8 -38 6 -33 16 3 4 -4 6 -15 4 -11 -2 -20 2 -20 8 0 9 -2 9 -8 0 -6 -10 -21
-10 -67 -2 -33 6 -82 12 -110 14 -39 1 -51 6 -55 21 -5 20 -50 33 -50 15z"/>
<path d="M2833 543 c-13 -2 -23 -9 -23 -14 0 -11 45 -7 56 4 4 4 14 1 22 -6
13 -10 14 -9 7 2 -7 11 -2 13 26 8 24 -5 30 -4 19 3 -15 10 -65 11 -107 3z"/>
<path d="M1091 531 c-1 -11 -21 -12 -106 -8 -58 3 -105 3 -105 -1 0 -5 -39 -7
-87 -6 -49 2 -81 0 -73 -3 8 -4 20 -12 27 -19 10 -9 48 -13 48 -4 0 1 10 3 23
4 16 2 21 -1 17 -12 -4 -10 0 -12 11 -8 10 4 18 0 21 -13 5 -18 8 -18 44 -6
21 8 39 11 39 7 0 -4 9 -8 20 -9 11 -1 20 4 20 12 0 9 -17 16 -45 21 -25 3
-45 9 -45 13 0 9 193 7 208 -2 8 -6 12 -1 12 13 0 12 -4 19 -9 16 -5 -4 -12 0
-14 6 -4 10 -6 10 -6 -1z"/>
<path d="M1433 520 c-1 -10 5 -24 13 -31 11 -9 14 -7 14 14 0 29 -25 44 -27
17z"/>
<path d="M2638 528 c13 -13 90 -16 95 -4 3 7 -13 11 -49 11 -29 0 -50 -3 -46
-7z"/>
<path d="M1173 522 c-24 -2 -43 -7 -43 -13 0 -10 11 -10 130 -10 51 0 83 -5
99 -16 15 -9 21 -10 16 -2 -6 9 -2 11 13 7 30 -8 27 6 -5 28 -24 15 -26 15
-14 1 16 -21 1 -23 -32 -5 -22 12 -84 16 -164 10z"/>
<path d="M320 505 c0 -8 14 -11 40 -10 22 1 38 -2 37 -8 -1 -5 5 -12 13 -14
13 -4 13 -3 0 6 -12 9 -11 11 8 11 12 0 22 -5 22 -11 0 -7 11 -9 30 -6 31 7
52 -10 30 -23 -9 -6 -9 -9 0 -15 7 -4 13 1 17 14 6 24 43 29 43 6 0 -18 -3
-17 38 -6 24 7 40 6 60 -5 32 -16 46 -18 37 -4 -3 6 1 10 9 10 10 0 13 -6 10
-15 -4 -8 -4 -15 -1 -15 3 0 7 7 11 15 7 20 -33 43 -44 24 -6 -9 -12 -9 -24 4
-20 20 -20 29 0 25 10 -2 19 2 21 9 3 8 -6 9 -36 1 -23 -6 -38 -14 -35 -19 3
-5 1 -9 -5 -9 -5 0 -11 5 -13 11 -2 7 -21 13 -41 13 -20 1 -42 7 -48 13 -8 8
-20 9 -36 2 -17 -6 -30 -6 -39 2 -8 6 -14 7 -14 2 0 -6 -18 -7 -45 -3 -32 5
-45 3 -45 -5z"/>
<path d="M1885 510 l-30 -7 25 -10 c28 -12 43 -7 34 10 -3 7 1 4 9 -5 8 -10
23 -18 33 -17 18 0 18 1 -1 9 -11 5 -15 9 -10 9 6 1 3 6 -5 11 -8 5 -17 9 -20
9 -3 -1 -18 -5 -35 -9z"/>
<path d="M2922 513 c-6 -2 -10 -9 -7 -13 3 -5 1 -11 -5 -15 -5 -3 -10 -1 -10
4 0 6 -4 11 -9 11 -5 0 -7 -9 -4 -20 5 -19 6 -19 34 2 38 29 39 47 1 31z"/>
<path d="M180 502 c-14 -2 -29 -7 -34 -12 -5 -5 -20 -4 -33 1 -18 7 -30 5 -46
-6 -21 -14 -18 -15 46 -14 37 1 67 5 67 10 0 4 15 9 33 11 24 2 27 4 12 8 -11
3 -31 4 -45 2z"/>
<path d="M2743 503 c-7 -3 -13 -13 -13 -23 0 -13 5 -17 19 -13 10 3 18 11 17
19 -3 18 -8 22 -23 17z"/>
<path d="M2955 502 c-11 -12 -4 -52 9 -52 22 0 29 18 9 23 -17 4 -17 5 0 6 21
1 23 28 2 28 -8 0 -17 -3 -20 -5z"/>
<path d="M2590 483 c0 -10 -9 -12 -34 -8 -21 4 -36 2 -41 -5 -11 -18 -3 -20
76 -22 41 -1 79 -3 86 -5 16 -6 5 -33 -14 -33 -8 0 -11 -4 -8 -10 3 -6 -4 -10
-16 -10 -12 0 -20 -3 -16 -6 11 -11 67 7 67 22 0 9 5 12 11 8 7 -4 7 1 -1 16
-7 12 -21 25 -31 27 -15 4 -17 8 -8 19 9 11 8 14 -2 15 -55 5 -69 4 -69 -8z"/>
<path d="M1063 473 c-18 -7 -16 -23 2 -23 8 0 15 5 15 12 0 9 3 9 12 0 17 -17
33 -15 18 3 -13 15 -25 17 -47 8z"/>
<path d="M1797 449 c5 -19 12 -20 68 -17 35 2 61 0 59 -4 -4 -7 67 1 75 8 2 2
10 -1 17 -7 8 -7 14 -6 20 2 10 17 -26 42 -41 29 -13 -11 -135 -9 -135 3 0 4
-15 7 -34 7 -30 0 -33 -3 -29 -21z"/>
<path d="M208 453 c-10 -2 -18 -9 -18 -14 0 -12 27 -12 34 0 3 5 15 7 26 4 11
-3 20 0 20 6 0 11 -29 13 -62 4z"/>
<path d="M747 446 c-5 -11 0 -16 14 -16 12 0 17 -4 14 -11 -4 -6 -13 -8 -21
-5 -9 3 -14 -1 -14 -13 0 -10 9 -21 19 -24 14 -3 18 -1 14 9 -3 8 0 14 6 14 6
0 11 -5 11 -12 0 -6 9 -3 21 8 19 17 22 17 32 3 14 -18 42 -30 51 -21 13 13
50 12 65 -2 9 -8 19 -15 24 -15 4 -1 8 -1 10 -2 20 -7 59 -5 86 3 23 7 35 7
40 0 7 -12 61 -4 61 10 0 5 -6 8 -12 7 -7 -1 -22 0 -33 1 -15 2 -12 4 10 10
29 8 29 8 -7 7 -20 -1 -34 -5 -32 -9 3 -4 -6 -8 -20 -8 -14 0 -26 4 -26 9 0
12 -39 21 -46 10 -3 -5 0 -9 5 -9 6 0 11 -4 11 -10 0 -5 -7 -10 -15 -10 -8 0
-15 5 -15 10 0 6 -9 21 -20 33 -17 17 -23 19 -29 8 -6 -9 -11 -10 -15 -3 -4 6
-15 8 -26 4 -10 -4 -41 -5 -69 -4 -38 3 -48 7 -44 18 3 9 13 12 32 8 14 -4 23
-4 20 0 -12 13 -79 16 -79 3 0 -9 -2 -9 -9 1 -7 11 -9 11 -14 -2z"/>
<path d="M0 438 c0 -5 5 -6 10 -3 5 3 10 -1 10 -10 0 -9 -4 -13 -10 -10 -5 3
-10 1 -10 -4 0 -6 9 -11 20 -11 14 0 20 -7 20 -24 0 -13 7 -26 15 -30 18 -6
20 5 4 21 -15 15 -3 33 24 34 12 0 16 3 9 6 -10 4 -10 8 0 21 11 13 10 15 -4
9 -10 -3 -20 -2 -23 3 -7 11 -65 10 -65 -2z"/>
<path d="M2138 443 c6 -2 12 -10 12 -16 0 -12 133 -17 145 -5 9 8 -98 20 -118
12 -10 -3 -17 -1 -17 5 0 6 -8 11 -17 10 -11 0 -13 -3 -5 -6z"/>
<path d="M2775 442 c2 -3 -1 -14 -7 -26 -6 -11 -7 -18 -3 -14 5 4 13 4 20 -2
7 -6 16 -3 27 10 18 21 14 32 -10 23 -9 -4 -13 -2 -9 4 3 5 0 10 -8 10 -8 0
-13 -2 -10 -5z"/>
<path d="M2930 420 c0 -11 -4 -20 -10 -20 -5 0 -10 7 -10 16 0 13 -3 14 -15 4
-8 -7 -24 -10 -35 -7 -11 3 -20 1 -20 -4 0 -5 8 -10 18 -11 9 0 22 -2 29 -2 6
-1 15 -5 19 -9 9 -9 44 22 44 40 0 7 -4 13 -10 13 -5 0 -10 -9 -10 -20z"/>
<path d="M535 420 c-3 -5 -1 -10 4 -10 18 0 12 -26 -9 -45 -11 -10 -20 -14
-20 -9 0 5 -5 1 -11 -9 -8 -14 -8 -22 1 -30 6 -7 10 -7 8 -2 -5 17 45 63 72
67 15 2 26 11 28 23 3 16 1 18 -9 8 -18 -18 -39 -16 -39 2 0 17 -16 20 -25 5z"/>
<path d="M1455 410 c6 -18 2 -20 -57 -21 -35 -1 -78 0 -97 1 -24 1 -31 -2 -25
-11 5 -9 2 -11 -9 -6 -10 3 -17 2 -17 -4 0 -6 8 -9 18 -7 9 1 23 -1 29 -5 9
-5 11 -3 7 6 -4 11 6 15 45 16 34 0 51 -3 51 -12 0 -8 4 -7 10 3 8 12 12 12
18 2 9 -13 38 -12 61 2 11 7 12 6 6 -5 -7 -12 -6 -12 7 -1 13 10 17 10 21 0 4
-10 6 -10 6 0 1 6 10 12 22 12 12 0 17 4 14 11 -4 6 -9 8 -12 5 -3 -2 -16 -1
-29 4 -14 6 -26 6 -29 0 -4 -6 -12 -10 -18 -9 -8 0 -8 2 1 6 10 4 10 8 1 19
-17 21 -31 17 -24 -6z"/>
<path d="M2952 405 c-10 -22 -9 -25 8 -25 13 0 17 -5 14 -14 -3 -8 -12 -12
-20 -9 -8 3 -14 0 -14 -6 0 -6 -4 -11 -10 -11 -5 0 -10 7 -10 16 0 13 -6 11
-33 -9 -31 -23 -35 -24 -50 -10 -14 14 -17 14 -39 -2 -14 -11 -16 -15 -6 -12
11 4 23 -1 32 -14 11 -16 20 -18 42 -13 16 4 34 13 39 20 11 15 30 14 62 -4
31 -17 34 -15 23 14 -8 19 -7 31 2 41 10 12 9 17 -5 24 -21 12 -23 33 -1 25 8
-3 12 -2 9 4 -11 18 -32 11 -43 -15z"/>
<path d="M620 406 c0 -10 10 -13 33 -11 26 2 38 -2 52 -21 10 -13 25 -24 34
-24 14 1 14 2 -1 11 -10 5 -18 17 -18 25 0 16 -39 34 -76 34 -14 0 -24 -6 -24
-14z"/>
<path d="M1683 398 c1 -12 5 -14 11 -8 15 15 26 12 20 -5 -4 -8 -17 -15 -31
-15 -17 0 -22 4 -17 13 6 9 4 8 -8 -1 -9 -7 -30 -14 -47 -14 -28 -1 -45 -16
-21 -19 20 -3 25 -4 38 -12 7 -5 12 -3 12 6 0 10 13 13 50 11 27 -1 48 2 45 6
-3 5 3 11 12 13 10 2 8 3 -4 2 -33 -3 -28 13 5 18 l27 4 -27 2 c-16 0 -28 5
-28 9 0 4 -9 8 -19 8 -12 0 -19 -7 -18 -18z"/>
<path d="M98 396 c-21 -16 -24 -30 -4 -23 7 3 26 -3 42 -14 35 -23 86 -25 117
-5 23 15 43 16 64 3 7 -4 41 -7 77 -6 50 1 66 6 69 18 4 13 5 13 6 -1 0 -10 6
-18 12 -18 5 0 7 5 4 10 -3 6 1 10 9 10 8 0 17 3 19 8 7 10 -104 14 -117 3
-12 -10 -76 -3 -76 8 0 10 -83 3 -112 -9 -13 -5 -17 -9 -10 -9 23 -2 12 -16
-13 -17 -28 -2 -31 6 -12 25 10 10 9 11 -5 6 -12 -5 -20 -1 -24 9 -7 19 -23
20 -46 2z"/>
<path d="M1789 391 c11 -7 11 -9 0 -13 -8 -3 12 -7 43 -9 56 -4 57 -4 35 13
-14 11 -26 13 -31 7 -12 -11 -29 -12 -22 -1 2 4 -5 9 -17 9 -15 2 -18 0 -8 -6z"/>
<path d="M2774 371 c-11 -12 0 -16 41 -15 43 1 75 12 44 16 -33 3 -81 3 -85
-1z"/>
<path d="M2731 348 c-8 -14 -9 -24 -3 -30 6 -6 9 -16 8 -22 -2 -6 -1 -8 1 -5
7 12 43 -3 43 -17 0 -8 5 -14 11 -14 5 0 7 -5 3 -12 -4 -7 -3 -8 4 -4 7 4 12
1 12 -8 0 -8 -4 -18 -10 -21 -5 -3 -10 -12 -9 -18 0 -9 2 -8 6 1 2 6 10 9 15
6 6 -4 8 -2 5 3 -4 6 1 14 11 18 16 6 16 7 -1 16 -9 6 -15 14 -12 19 3 4 -2
10 -10 14 -8 3 -15 12 -15 21 0 9 -9 15 -24 15 -32 0 -40 14 -21 34 8 8 12 17
7 20 -4 2 -14 -5 -21 -16z"/>
<path d="M565 350 c-3 -5 -11 -8 -16 -5 -13 9 -11 -7 5 -27 7 -10 20 -18 29
-18 16 0 34 37 23 47 -3 4 -6 0 -6 -8 -1 -10 -4 -9 -14 4 -9 12 -16 14 -21 7z"/>
<path d="M783 337 c0 -16 5 -27 13 -27 8 0 14 5 14 11 0 5 5 7 12 3 7 -4 8 -3
4 5 -4 6 -11 9 -16 6 -5 -3 -13 2 -18 11 -8 14 -9 12 -9 -9z"/>
<path d="M1380 335 c0 -19 3 -25 8 -17 5 7 16 10 25 6 13 -5 16 -2 11 10 -3 9
-11 13 -16 10 -6 -4 -14 0 -19 7 -6 10 -9 5 -9 -16z"/>
<path d="M1895 350 c-10 -17 42 -16 60 1 5 5 -3 9 -22 9 -18 0 -35 -4 -38 -10z"/>
<path d="M875 341 c4 -8 2 -17 -6 -22 -10 -6 -11 -9 -1 -9 20 0 14 -16 -10
-27 -17 -8 13 -10 115 -8 75 2 137 0 137 -4 0 -4 8 -7 18 -8 9 -1 29 -3 45 -6
15 -2 30 0 33 4 3 5 -5 9 -17 9 -12 0 -27 7 -33 15 -7 10 -31 17 -62 19 -28 2
-61 9 -72 15 -14 7 -23 8 -27 1 -4 -6 -11 -8 -16 -5 -5 4 -9 2 -9 -3 0 -5 -11
-9 -25 -9 -13 0 -22 3 -19 8 3 5 0 9 -7 9 -7 0 -21 8 -32 18 -11 9 -17 11 -12
3z"/>
<path d="M1183 339 c-10 -4 -31 -9 -48 -10 -24 -1 -26 -3 -7 -6 12 -2 22 -9
22 -14 0 -15 27 -10 34 6 3 8 17 15 31 15 14 0 25 4 25 9 0 11 -29 11 -57 0z"/>
<path d="M2071 327 c13 -13 30 -23 38 -22 24 0 23 -22 -1 -29 l-23 -7 25 -12
c14 -6 31 -17 38 -24 18 -17 25 -16 19 1 -9 23 18 26 37 5 20 -24 12 -42 -16
-33 -14 4 -18 2 -14 -5 4 -6 0 -14 -9 -17 -23 -9 3 -26 28 -18 9 3 24 -2 33
-11 9 -9 23 -14 30 -11 8 3 14 -1 14 -10 0 -8 12 -20 28 -26 34 -14 82 -18 82
-7 0 5 -4 9 -10 9 -19 0 -25 2 -51 20 -14 10 -37 22 -52 25 -35 9 -54 32 -39
47 9 9 12 9 12 -1 0 -7 5 -11 11 -9 12 4 13 18 2 19 -5 0 -16 7 -25 16 -23 21
-12 44 18 37 18 -5 23 -3 19 7 -3 8 -19 14 -35 15 -26 1 -30 -2 -25 -20 4 -12
3 -16 -2 -10 -4 6 -20 14 -35 18 -22 5 -28 12 -28 32 0 14 -4 23 -10 19 -6 -4
-24 1 -42 9 -42 22 -45 20 -17 -7z"/>
<path d="M623 322 c-11 -18 -8 -19 50 -17 92 3 97 4 97 16 0 7 -8 9 -22 4 -47
-14 -107 -13 -110 1 -2 11 -6 10 -15 -4z"/>
<path d="M2511 333 c-1 -7 -12 -13 -25 -13 -13 0 -29 -7 -36 -15 -9 -10 -9
-15 -1 -15 6 0 11 4 11 10 0 14 61 0 83 -18 15 -14 17 -14 12 -1 -4 10 5 21
27 32 l33 16 -30 -5 c-16 -3 -37 -6 -45 -8 -8 -2 -18 4 -22 13 -4 9 -7 11 -7
4z"/>
<path d="M2170 320 c-11 -7 -7 -10 17 -10 17 0 33 -5 35 -12 2 -6 10 -8 17 -4
9 6 9 11 0 22 -13 16 -47 18 -69 4z"/>
<path d="M2260 322 c0 -5 3 -12 7 -16 4 -4 8 -15 8 -24 0 -13 9 -17 42 -16 28
0 44 -5 48 -14 6 -16 -3 -34 -14 -28 -4 3 -8 -1 -8 -9 0 -18 13 -20 23 -3 5 8
11 6 20 -7 12 -16 14 -16 36 -1 l22 16 -21 0 c-12 0 -25 5 -28 11 -5 7 4 9 29
5 20 -3 36 -2 36 3 0 14 -18 23 -24 13 -7 -11 -66 -2 -66 10 0 5 5 6 10 3 6
-3 10 -2 10 4 0 5 -6 12 -12 14 -8 3 -5 6 5 6 30 1 13 26 -19 29 -22 2 -26 0
-14 -7 11 -8 11 -11 2 -11 -7 0 -10 -6 -7 -12 4 -7 -2 -4 -12 8 -19 22 -73 41
-73 26z"/>
<path d="M106 298 c5 -16 3 -20 -9 -15 -8 3 -20 0 -26 -6 -12 -12 -15 3 -3 19
4 5 -6 -4 -21 -21 -16 -16 -32 -29 -38 -27 -5 1 -9 -5 -9 -13 0 -9 9 -15 25
-15 14 0 24 3 24 8 -4 21 4 27 37 30 25 1 34 -2 32 -10 -5 -13 14 -38 28 -38
5 0 3 5 -4 12 -17 17 -15 48 3 48 27 0 16 25 -15 37 -29 11 -30 10 -24 -9z"/>
<path d="M220 309 c0 -6 -7 -8 -17 -5 -10 4 -14 4 -10 0 4 -4 2 -12 -3 -19 -7
-8 -5 -12 5 -12 8 0 15 4 15 9 0 5 4 7 9 4 5 -4 12 0 14 6 3 7 6 3 6 -9 1 -14
7 -23 17 -23 14 0 14 3 3 16 -10 12 -10 17 0 23 10 6 9 10 -4 15 -24 9 -35 7
-35 -5z"/>
<path d="M1710 314 c0 -19 -26 -24 -61 -11 -25 9 -33 9 -36 0 -3 -7 -14 -13
-24 -13 -11 0 -18 -4 -15 -9 4 -5 30 -9 60 -9 60 1 87 -9 65 -23 -11 -7 -10
-9 5 -9 11 0 16 5 13 14 -3 7 -1 18 5 24 7 7 7 16 -1 29 -6 10 -11 13 -11 7z"/>
<path d="M1778 313 c6 -2 12 -9 12 -14 0 -11 -37 -12 -43 -1 -2 4 -3 2 -1 -4
1 -7 -2 -30 -8 -51 -9 -36 -13 -40 -39 -39 -19 1 -27 5 -24 13 2 7 -1 12 -7
10 -7 -1 -13 4 -14 11 -1 6 -2 17 -3 22 0 6 -5 10 -10 10 -12 0 -1 -42 13 -53
7 -6 7 -10 1 -13 -30 -13 -39 -24 -30 -33 8 -8 22 -5 48 9 30 16 37 17 37 5 0
-9 6 -12 15 -9 8 4 15 12 15 20 0 8 10 14 21 14 18 0 19 3 9 15 -9 11 -8 18 9
36 12 13 21 29 21 37 0 9 7 11 20 7 11 -4 20 -2 20 4 0 6 -17 11 -37 10 -21 0
-32 -3 -25 -6z"/>
<path d="M2013 302 c-7 -4 -9 -13 -4 -20 6 -10 15 -10 35 -2 15 5 25 6 21 1
-3 -5 -1 -12 5 -16 5 -3 10 1 10 10 0 8 -12 20 -26 25 -30 12 -26 12 -41 2z"/>
<path d="M2917 303 c-10 -9 -9 -45 1 -39 9 5 35 -23 40 -43 1 -8 -7 -7 -28 4
-16 9 -30 11 -30 6 0 -12 31 -30 71 -41 23 -7 29 -5 29 7 0 9 -8 22 -17 29
-16 12 -16 15 -3 24 13 9 13 11 0 20 -8 5 -25 10 -37 10 -16 0 -21 4 -17 15 6
16 2 20 -9 8z"/>
<path d="M714 286 c-13 -10 -24 -11 -37 -4 -10 5 -21 8 -23 5 -3 -2 9 -10 27
-17 20 -9 33 -10 37 -3 4 5 14 12 22 15 9 3 10 7 3 11 -5 3 -19 0 -29 -7z"/>
<path d="M1233 293 c-22 -8 -14 -26 7 -20 17 4 20 2 14 -15 -4 -14 -2 -18 5
-14 24 15 1 59 -26 49z"/>
<path d="M1395 289 c4 -5 15 -9 25 -9 10 0 25 -7 33 -15 12 -11 17 -12 20 -2
4 9 6 9 6 0 1 -14 31 -19 31 -5 -1 18 -17 30 -40 30 -14 -1 -37 2 -53 5 -16 3
-25 2 -22 -4z"/>
<path d="M1845 289 c-4 -6 -2 -16 5 -22 10 -9 11 -9 6 0 -5 9 1 11 22 7 20 -4
31 -2 34 8 7 17 -57 24 -67 7z"/>
<path d="M1526 281 c-4 -5 0 -11 6 -14 10 -4 11 -7 1 -18 -15 -15 -17 -49 -4
-49 6 0 13 5 17 12 5 7 3 8 -7 3 -11 -7 -11 -5 1 9 20 26 24 66 6 66 -8 0 -17
-4 -20 -9z"/>
<path d="M1934 272 c6 -17 3 -20 -16 -16 -21 4 -21 4 -3 -5 28 -14 35 -13 35
3 0 9 7 12 19 9 10 -3 21 -1 24 4 4 6 1 10 -6 10 -7 0 -23 3 -35 7 -21 7 -23
5 -18 -12z"/>
<path d="M2685 278 c-12 -41 -13 -43 -14 -25 -1 9 -5 17 -10 17 -5 0 -8 -8 -6
-17 2 -10 4 -21 4 -25 2 -14 28 -8 42 9 10 11 10 14 2 9 -7 -4 -13 -3 -13 3 0
5 5 13 10 16 6 3 10 10 10 16 0 14 -20 11 -25 -3z"/>
<path d="M474 261 c-2 -2 -4 -8 -4 -12 0 -8 13 -7 49 5 18 6 28 4 37 -8 8 -11
32 -18 75 -21 l64 -5 -82 25 c-75 22 -126 28 -139 16z"/>
<path d="M2613 263 c-7 -3 -13 -9 -13 -15 0 -6 7 -8 15 -4 9 3 15 0 15 -9 0
-7 5 -17 10 -20 14 -9 12 18 -2 37 -7 9 -19 14 -25 11z"/>
<path d="M172 249 c-19 -7 -21 -11 -10 -23 19 -20 66 3 52 26 -6 10 -12 9 -42
-3z"/>
<path d="M1280 251 c0 -5 6 -12 13 -15 10 -5 10 -7 0 -12 -18 -8 -16 -21 2
-21 9 0 15 9 15 23 0 12 -7 24 -15 28 -8 3 -15 1 -15 -3z"/>
<path d="M2482 253 c-6 -2 -9 -9 -6 -15 4 -6 10 -5 16 3 6 10 8 7 6 -11 -2
-14 2 -26 7 -26 6 -1 9 2 7 8 -1 5 3 6 10 1 22 -13 107 -11 101 3 -5 13 -40
12 -64 0 -8 -4 -4 1 9 12 12 11 22 22 22 25 0 12 -34 -1 -46 -17 -12 -17 -13
-17 -26 3 -13 22 -15 23 -36 14z"/>
<path d="M1986 231 c-11 -13 -14 -21 -7 -26 12 -7 15 -26 4 -24 -22 4 -33 -3
-33 -17 0 -14 3 -14 15 -4 8 7 15 9 15 6 0 -4 7 0 16 8 8 9 21 14 27 10 7 -3
3 2 -7 10 -11 9 -24 16 -29 16 -5 0 -4 7 3 15 11 13 15 13 21 3 6 -9 9 -9 9
-1 0 21 -17 23 -34 4z"/>
<path d="M2066 241 c-11 -18 14 -33 31 -19 7 6 13 15 13 20 0 6 -6 6 -14 -1
-11 -9 -15 -9 -18 1 -3 9 -6 9 -12 -1z"/>
<path d="M1878 233 c-10 -2 -18 -8 -18 -12 0 -4 -14 -6 -30 -5 -26 2 -29 0
-19 -12 7 -8 18 -13 25 -10 8 3 13 2 12 -2 -3 -14 14 -42 23 -36 14 8 11 -20
-3 -36 -7 -7 1 -4 17 7 17 11 37 18 45 15 13 -4 13 -3 2 11 -7 8 -22 14 -32
12 -22 -4 -36 10 -20 20 8 5 7 11 -1 21 -9 11 -8 14 5 14 9 0 16 5 16 10 0 6
-1 9 -2 9 -2 -1 -11 -3 -20 -6z"/>
<path d="M1501 218 c0 -10 -8 -18 -16 -18 -13 0 -15 -9 -11 -39 5 -46 0 -54
-25 -40 -12 6 -16 16 -12 27 5 15 4 15 -9 -1 -7 -10 -20 -17 -28 -15 -11 2
-14 -5 -13 -24 1 -18 -4 -28 -16 -31 -16 -4 -21 -27 -12 -57 1 -3 11 14 23 38
15 28 24 38 30 30 5 -9 8 -5 8 10 0 13 4 21 10 17 5 -3 7 -12 4 -19 -3 -8 -1
-17 5 -21 6 -3 9 0 6 7 -3 8 4 14 20 15 67 6 95 1 95 -15 0 -7 -4 -10 -10 -7
-5 3 -10 1 -10 -4 0 -6 5 -11 10 -11 6 0 10 -7 10 -15 0 -8 -5 -15 -11 -15 -5
0 -7 5 -4 11 4 6 -12 1 -35 -11 -36 -18 -42 -19 -37 -6 8 21 -22 34 -33 16
-13 -20 -1 -37 23 -35 12 1 46 3 76 4 41 1 51 4 43 14 -13 15 -11 66 3 64 5
-1 17 -11 27 -22 17 -20 17 -20 18 3 0 13 -4 20 -10 17 -5 -3 -10 3 -10 15 0
12 -4 18 -10 15 -5 -3 -10 -1 -10 4 0 6 -7 11 -15 11 -7 0 -19 8 -25 18 -9 14
-10 13 -4 -7 5 -20 3 -23 -11 -18 -9 4 -23 7 -31 7 -8 0 -14 5 -14 10 0 6 9
10 20 10 11 0 20 4 20 9 0 6 -9 8 -20 6 -25 -5 -35 11 -14 23 9 5 14 17 11 28
-4 16 -5 17 -6 2z"/>
<path d="M1221 199 c-10 -18 -10 -23 0 -30 16 -10 29 -2 29 17 0 8 5 14 10 14
6 0 10 5 10 10 0 18 -35 10 -49 -11z"/>
<path d="M1920 205 c-10 -12 -10 -19 -2 -27 9 -9 15 -7 26 7 23 32 0 49 -24
20z"/>
<path d="M2710 211 c23 -16 5 -23 -52 -21 -75 2 -98 1 -109 -6 -13 -8 9 -34
27 -34 8 0 19 -11 24 -24 6 -17 18 -26 37 -28 20 -2 28 -8 27 -21 -1 -9 3 -17
10 -16 6 1 27 -4 46 -12 19 -7 39 -12 44 -11 4 2 14 -5 21 -15 13 -17 14 -16
24 9 6 15 8 35 4 44 -4 12 -2 15 8 12 8 -3 13 -10 12 -16 -1 -5 7 -12 18 -15
14 -4 19 -1 17 11 -2 11 10 20 37 29 l40 12 -35 0 c-55 -1 -60 0 -61 19 0 13
-3 12 -11 -6 -6 -12 -18 -21 -27 -20 -10 2 -15 -5 -16 -21 0 -13 -5 -26 -11
-28 -16 -5 -26 40 -11 49 8 5 6 9 -7 14 -11 4 -21 2 -27 -7 -5 -8 -4 -15 1
-17 6 -2 10 -11 10 -19 0 -10 -6 -13 -16 -9 -9 3 -17 6 -19 6 -2 0 -1 19 1 43
4 39 3 40 -7 15 -10 -26 -29 -39 -29 -20 0 5 -7 9 -15 10 -8 1 -23 3 -32 4
-24 2 -64 51 -50 60 7 5 19 0 27 -10 15 -17 70 -27 70 -12 0 4 11 11 25 14 14
4 26 14 26 24 1 9 5 4 8 -13 4 -17 3 -36 -3 -44 -9 -12 -8 -12 11 -1 12 8 19
18 16 24 -4 5 3 7 15 4 26 -7 26 -8 7 28 -11 22 -15 24 -15 10 0 -16 -2 -17
-16 -5 -9 7 -26 14 -37 16 -17 2 -19 1 -7 -6z"/>
<path d="M261 173 c0 -23 4 -45 9 -48 11 -7 11 16 0 60 -7 28 -8 28 -9 -12z"/>
<path d="M1600 201 c0 -4 -11 -6 -25 -3 -18 3 -25 0 -25 -11 0 -16 35 -17 58
-3 15 9 16 26 2 26 -5 0 -10 -4 -10 -9z"/>
<path d="M2317 196 c-4 -9 -15 -13 -26 -11 -14 2 -18 -1 -15 -10 4 -10 15 -12
35 -8 24 4 30 1 40 -21 9 -20 15 -23 26 -15 10 9 13 8 13 -1 0 -9 4 -9 13 -2
8 7 18 6 31 -4 14 -10 16 -14 5 -14 -12 0 -12 -2 1 -10 25 -16 30 -12 23 20
-5 26 -3 29 12 23 13 -4 16 -3 11 6 -5 7 -16 9 -28 5 -12 -4 -18 -2 -15 4 7
10 -27 8 -55 -3 -14 -6 -18 -2 -18 15 0 13 -4 19 -12 14 -6 -4 -17 1 -23 10
-11 14 -13 14 -18 2z"/>
<path d="M1170 179 c0 -6 -9 -8 -20 -4 -13 4 -20 2 -20 -6 0 -7 3 -9 7 -6 3 4
11 0 18 -9 10 -15 13 -15 28 1 21 20 22 35 2 35 -8 0 -15 -5 -15 -11z"/>
<path d="M1330 180 c0 -12 47 -12 75 0 15 6 8 9 -27 9 -27 1 -48 -3 -48 -9z"/>
<path d="M1603 159 c-9 -9 -8 -15 2 -25 7 -8 15 -19 18 -26 2 -7 7 -10 11 -7
3 3 0 20 -7 37 -10 24 -16 29 -24 21z"/>
<path d="M484 124 c0 -18 3 -31 7 -28 4 2 9 -5 12 -16 6 -23 28 -23 39 0 5 11
7 9 7 -7 1 -12 5 -24 10 -27 5 -4 8 5 7 18 -2 13 3 34 10 47 l14 24 7 -25 7
-25 6 25 c6 25 -9 50 -29 50 -6 0 -11 -12 -11 -26 0 -24 -2 -25 -17 -13 -15
12 -16 12 -10 -3 4 -11 2 -17 -6 -15 -7 1 -11 -4 -9 -10 3 -19 -15 -16 -22 3
-9 24 -7 46 4 39 6 -3 10 -2 10 3 0 5 -8 12 -18 14 -15 4 -18 -1 -18 -28z"/>
<path d="M1296 148 c-16 -52 -15 -66 5 -71 12 -3 27 -3 35 0 16 6 19 53 4 53
-5 0 -10 -8 -10 -17 0 -15 -2 -16 -9 -3 -6 8 -7 18 -4 24 4 5 1 6 -7 1 -10 -6
-12 -4 -7 8 3 10 4 17 1 17 -2 0 -6 -6 -8 -12z"/>
<path d="M1699 153 c-8 -46 -6 -49 27 -49 19 0 34 4 34 8 0 7 -23 12 -42 9 -5
0 -8 6 -8 15 0 9 5 12 12 8 7 -4 8 -3 4 4 -8 13 -25 16 -27 5z"/>
<path d="M2536 145 c-10 -26 -7 -35 9 -29 11 4 15 0 15 -16 0 -19 -4 -21 -25
-16 -19 5 -25 2 -25 -9 0 -11 6 -14 23 -10 12 4 35 2 49 -4 22 -8 26 -8 21 4
-3 8 -8 15 -12 15 -7 0 -34 47 -35 62 -2 16 -14 17 -20 3z"/>
<path d="M720 138 c0 -10 5 -18 10 -18 6 0 14 -10 19 -22 7 -19 9 -16 8 17 0
22 -2 32 -5 22 -4 -18 -4 -18 -18 0 -12 17 -13 17 -14 1z"/>
<path d="M1240 135 c0 -9 -7 -18 -15 -21 -8 -4 -15 -12 -15 -20 0 -8 6 -11 15
-8 15 6 19 -5 15 -36 -1 -12 1 -12 11 -3 18 18 19 52 1 46 -11 -5 -13 0 -7 25
3 18 4 32 1 32 -3 0 -6 -7 -6 -15z"/>
<path d="M2965 140 c3 -5 -1 -10 -9 -10 -14 0 -14 -3 -4 -20 16 -25 -2 -41
-38 -34 -27 5 -41 -11 -17 -20 9 -4 20 -1 25 6 6 10 8 10 8 1 0 -7 9 -13 21
-13 13 0 18 -4 13 -12 -4 -7 -4 -10 1 -6 4 4 14 3 22 -3 7 -6 13 -8 13 -4 0 4
-10 15 -22 25 -19 15 -20 20 -9 34 7 9 18 13 24 9 6 -3 7 -1 3 6 -4 6 -13 8
-19 4 -7 -3 -4 3 6 14 9 11 17 24 17 29 0 5 -5 2 -10 -6 -6 -10 -10 -11 -10
-2 0 6 -5 12 -11 12 -5 0 -7 -4 -4 -10z"/>
<path d="M1079 135 c-1 -3 -2 -8 -3 -12 -1 -5 -5 -14 -10 -21 -4 -7 -5 -16 -2
-19 3 -4 6 -2 6 4 0 5 14 8 30 5 19 -3 30 0 30 7 0 7 6 11 13 10 30 -4 41 3
19 12 -13 5 -28 7 -33 4 -5 -3 -18 -1 -29 5 -11 6 -21 8 -21 5z"/>
<path d="M2056 120 c4 -21 3 -22 -6 -7 -12 18 -50 24 -50 7 0 -5 6 -7 13 -4 8
3 18 -6 25 -20 7 -17 18 -24 36 -22 22 1 24 3 11 12 -22 17 -18 36 7 32 28 -4
55 -51 33 -56 -24 -5 -17 -24 8 -20 19 3 22 8 19 38 -2 24 0 31 6 21 7 -9 11
-10 17 -2 4 8 11 9 19 2 8 -7 12 -4 12 10 0 16 -6 19 -36 15 -19 -2 -46 1 -59
6 -15 5 -28 5 -36 -2 -9 -8 -15 -7 -19 2 -3 7 -3 2 0 -12z"/>
<path d="M110 115 c-1 -12 -4 -15 -7 -7 -4 10 -8 10 -19 1 -18 -15 -18 -28 1
-25 22 3 38 22 32 38 -3 8 -6 6 -7 -7z"/>
<path d="M334 122 c-6 -5 -4 -13 8 -24 10 -10 18 -13 18 -8 0 7 7 7 20 0 16
-9 22 -8 26 5 4 9 4 19 0 22 -3 4 -6 1 -6 -5 0 -7 -5 -12 -11 -12 -5 0 -8 4
-5 8 3 5 -1 9 -9 9 -8 0 -15 -5 -16 -11 0 -6 -3 -3 -7 6 -4 10 -12 14 -18 10z"/>
<path d="M807 116 c-4 -10 -7 -27 -6 -39 0 -15 2 -17 6 -7 3 8 12 19 19 23 8
4 14 16 14 25 0 13 -2 14 -9 3 -7 -11 -9 -11 -13 0 -3 9 -6 8 -11 -5z"/>
<path d="M1775 120 c-5 -9 -4 -15 3 -18 7 -2 10 -7 8 -11 -3 -4 -1 -13 5 -21
5 -8 9 -10 9 -4 0 11 81 11 99 -1 12 -7 13 -3 6 17 -4 11 -20 14 -56 12 -43
-3 -51 -1 -58 18 -6 17 -10 18 -16 8z"/>
<path d="M166 111 c-3 -5 9 -12 28 -15 19 -4 37 -14 40 -22 5 -12 2 -15 -13
-11 -10 2 -25 0 -32 -5 -9 -6 2 -8 33 -5 29 2 49 0 52 -7 3 -7 5 -6 5 2 2 20
29 14 36 -9 6 -18 20 -19 20 -1 0 4 3 12 7 18 4 6 2 11 -5 12 -45 7 -73 6 -79
-3 -4 -5 -8 0 -8 11 0 12 -8 25 -17 29 -32 12 -62 15 -67 6z"/>
<path d="M631 104 c11 -13 11 -18 2 -21 -17 -6 -16 -43 1 -66 16 -20 63 -17
58 4 -2 8 -14 24 -29 35 -25 22 -25 22 -4 29 11 3 26 3 33 -1 8 -5 9 -2 5 10
-4 10 -7 20 -7 23 0 3 -7 0 -16 -8 -9 -7 -18 -9 -22 -3 -4 5 -13 10 -21 12
-12 3 -12 1 0 -14z m39 -76 c0 -23 -14 -23 -31 -1 -10 11 -10 14 -1 9 6 -4 12
-2 12 3 0 6 -4 11 -10 11 -5 0 -10 5 -10 10 0 6 8 5 20 -2 11 -7 20 -21 20
-30z"/>
<path d="M1980 113 c0 -7 -9 -9 -22 -5 -23 6 -23 5 -4 -14 13 -12 21 -15 23
-7 5 13 33 6 46 -11 5 -7 7 -3 4 9 -2 11 -9 19 -17 17 -7 -2 -17 3 -21 10 -6
9 -9 9 -9 1z"/>
<path d="M997 85 c3 -14 11 -25 19 -25 10 0 11 6 5 22 -11 31 -29 34 -24 3z"/>
<path d="M2225 102 c-3 -3 -5 -11 -5 -19 0 -22 27 -26 52 -8 l23 17 -23 -5
c-16 -4 -22 -2 -19 7 5 12 -18 18 -28 8z"/>
<path d="M580 67 c0 -22 5 -37 12 -37 6 0 8 3 5 7 -4 3 -3 11 2 17 6 7 4 18
-5 30 -13 18 -14 17 -14 -17z"/>
<path d="M1662 87 c-7 -9 -10 -27 -5 -47 5 -30 4 -33 -13 -26 -31 12 -36 12
-41 -1 -3 -9 5 -13 25 -13 33 0 104 61 80 69 -7 2 -18 11 -24 19 -9 12 -12 12
-22 -1z"/>
<path d="M1945 61 c4 -13 8 -31 9 -40 2 -9 14 -17 31 -19 25 -3 27 -2 16 12
-8 9 -20 16 -28 16 -8 0 -11 5 -8 10 3 6 -1 18 -11 27 -16 16 -16 16 -9 -6z"/>
<path d="M700 58 c0 -6 11 -8 24 -6 15 3 23 1 20 -6 -2 -6 6 -11 19 -11 17 0
23 5 19 17 -3 12 -15 17 -43 16 -21 0 -39 -5 -39 -10z"/>
<path d="M1149 47 c-15 -14 -18 -22 -10 -30 16 -16 39 -17 45 -1 6 16 -10 19
-19 4 -4 -6 -11 -8 -16 -5 -5 4 -3 12 5 20 10 11 22 12 45 5 23 -6 31 -5 31 5
0 22 -57 24 -81 2z"/>
<path d="M2283 56 c-13 -6 -23 -14 -23 -17 0 -10 68 -16 82 -8 7 5 20 1 30 -8
21 -19 24 -4 7 28 -10 20 -11 20 -24 3 -12 -17 -14 -17 -29 -1 -10 9 -18 16
-19 16 -1 -1 -12 -6 -24 -13z"/>
<path d="M428 53 c6 -2 10 -9 7 -13 -3 -5 -12 -7 -20 -3 -8 3 -15 1 -15 -5 0
-8 17 -9 53 -3 5 0 6 5 2 10 -3 5 3 12 12 14 10 3 2 5 -17 5 -19 0 -29 -2 -22
-5z"/>
<path d="M1310 51 c0 -7 -6 -11 -14 -8 -11 4 -11 1 -2 -19 6 -13 14 -24 17
-24 13 0 19 32 9 48 -6 12 -9 13 -10 3z"/>
<path d="M2194 36 c5 -21 2 -25 -21 -29 -26 -4 -26 -4 5 -6 21 -1 32 4 32 13
0 8 8 17 18 21 16 7 15 8 -3 15 -32 14 -38 11 -31 -14z"/>
<path d="M2495 40 c-3 -5 -1 -10 5 -10 6 0 9 -4 6 -9 -3 -5 1 -12 10 -15 24
-9 54 -7 54 4 0 6 -11 10 -25 10 -16 0 -25 6 -25 15 0 17 -16 20 -25 5z"/>
<path d="M1377 20 c-4 -16 0 -19 19 -18 29 3 30 9 5 25 -16 10 -20 9 -24 -7z"/>
<path d="M1747 33 c-16 -15 -5 -30 22 -30 21 0 28 4 24 14 -3 8 -8 11 -11 9
-3 -3 -10 -1 -17 4 -7 5 -15 7 -18 3z"/>
<path d="M2682 24 c-7 -8 -19 -11 -25 -8 -9 5 -9 4 0 -6 9 -9 16 -10 25 -3 7
6 21 9 31 8 10 -2 17 3 17 12 0 12 -3 13 -14 4 -8 -7 -16 -8 -18 -2 -1 5 -9 3
-16 -5z"/>
<path d="M2054 21 c4 -5 0 -12 -6 -14 -7 -3 1 -6 19 -6 25 -1 31 2 27 14 -4 8
-15 15 -26 15 -10 0 -17 -4 -14 -9z"/>
<path d="M2825 19 c-8 -12 6 -16 60 -17 40 -1 46 1 32 9 -23 13 -86 19 -92 8z"/>
</g>
</svg>
